<?xml version="1.0" encoding="utf-8"?>
<svg width="94.873" height="96.843" viewBox="0 0 94.873 96.843" overflow="visible" xmlns="http://www.w3.org/2000/svg">
<path fill="none" stroke="#F99110" stroke-width="6" d="M91.93,48.421c0-4.309-3.414-7.803-7.631-7.804
	c1.381-1.412,2.234-3.362,2.234-5.516c0-4.312-3.418-7.804-7.633-7.804c-2.109,0-4.018,0.873-5.399,2.285
	c0-4.31-3.418-7.804-7.634-7.804c1.381-1.413,2.236-3.364,2.236-5.519c0-4.311-3.419-7.804-7.635-7.804
	c-2.107,0-4.017,0.875-5.398,2.287v0c0-4.31-3.418-7.804-7.634-7.804c-4.215,0-7.634,3.494-7.634,7.803
	c-1.381-1.412-3.29-2.286-5.397-2.286c-4.217,0-7.634,3.494-7.634,7.804c0,2.155,0.855,4.106,2.236,5.519
	c-4.216,0-7.633,3.494-7.633,7.804c0,0,0,0,0,0.001c-1.382-1.413-3.291-2.286-5.399-2.286c-4.216,0-7.634,3.492-7.634,7.804
	c0,2.154,0.854,4.104,2.234,5.516c-4.215,0-7.633,3.495-7.633,7.804c0,4.31,3.418,7.804,7.634,7.804c0,0,0.001,0,0.001,0
	c-1.382,1.412-2.236,3.363-2.236,5.518c0,4.311,3.417,7.805,7.634,7.805c2.108,0,4.017-0.875,5.399-2.287v0.002
	c0,4.311,3.417,7.803,7.632,7.803c-1.38,1.414-2.235,3.363-2.235,5.52c0,4.309,3.417,7.803,7.634,7.803
	c2.107,0,4.016-0.873,5.397-2.285c0,4.311,3.419,7.803,7.634,7.803c4.216,0,7.634-3.492,7.634-7.805
	c1.382,1.414,3.291,2.287,5.398,2.287c4.216,0,7.635-3.494,7.635-7.803c0-2.156-0.855-4.105-2.236-5.52
	c4.216,0,7.634-3.492,7.634-7.803c0,0,0,0,0-0.002c1.382,1.414,3.29,2.287,5.399,2.287c4.215,0,7.633-3.494,7.633-7.805
	c0-2.154-0.854-4.105-2.236-5.518C88.514,56.225,91.93,52.73,91.93,48.421z"/>
<path fill="#F99110" d="M31.661,48.655c-1.08-1.08-1.746-2.57-1.746-4.215
	c0-3.292,2.669-5.962,5.962-5.962c3.291,0,5.962,2.67,5.962,5.962h-3.492c0-1.366-1.106-2.471-2.47-2.471
	c-1.365,0-2.47,1.105-2.47,2.471c0,0.681,0.276,1.298,0.723,1.744c0.448,0.448,1.065,0.725,1.747,0.725
	c1.646,0,3.136,0.666,4.215,1.746h0.001c1.078,1.08,1.746,2.57,1.746,4.215c0,3.292-2.671,5.964-5.962,5.964
	c-3.292,0-5.962-2.672-5.962-5.964h3.492c0,1.363,1.105,2.472,2.47,2.472c1.363,0,2.47-1.108,2.47-2.472
	c0-0.681-0.277-1.298-0.723-1.744h-0.001c-0.447-0.447-1.064-0.725-1.746-0.725C34.23,50.401,32.741,49.735,31.661,48.655z"/>
<path fill="#F99110" d="M53.762,38.478l-4.214,20.356h-3.495l-4.214-20.356h3.494l2.466,11.921
	l2.472-11.921H53.762z"/>
	<path fill="#F99110" d="M59.726,46.909h5.963v5.961c0,3.292-2.671,5.964-5.963,5.964
	s-5.961-2.672-5.964-5.964v-8.43c0-3.292,2.672-5.962,5.964-5.962s5.963,2.67,5.963,5.962h-3.494
	c0-1.363-1.105-2.469-2.469-2.469c-1.364,0-2.469,1.105-2.469,2.469v8.43c0,1.363,1.104,2.469,2.469,2.469
	c1.363,0,2.469-1.105,2.469-2.466V52.87v-2.467h-2.469V46.909z"/>
</svg>
