STARTFONT 2.1
FONTBOUNDINGBOX 28 28 0 -4
STARTPROPERTIES 2
FONT_ASCENT 22
FONT_DESCENT 6
ENDPROPERTIES
CHARS 30
STARTCHAR 4E0E
ENCODING 19982
SWIDTH 520 0
DWIDTH 28 0
BBX 28 28 0 -4
BITMAP
00000000
00000000
01c00000
01c00000
01800000
01800380
01ffff80
01800000
01800000
03800000
03800000
03000000
03ffff00
03ffff00
00000700
00000700
00000600
00000600
1fffe600
1fffe600
00000600
00000600
00000600
00000600
00007e00
00007c00
00006000
00000000
ENDCHAR
STARTCHAR 4E2D
ENCODING 20013
SWIDTH 520 0
DWIDTH 28 0
BBX 28 28 0 -4
BITMAP
00000000
00060000
00060000
00060000
00060000
00060000
00060000
0fffff00
0fffff00
0c060300
0c060300
0c060300
0c060300
0c060300
0c060300
0fffff00
0fffff00
0c060300
0c060300
00060000
00060000
00060000
00060000
00060000
00060000
00060000
00000000
00000000
ENDCHAR
STARTCHAR 4E50
ENCODING 20048
SWIDTH 520 0
DWIDTH 28 0
BBX 28 28 0 -4
BITMAP
00000000
00000000
00003c00
07fffc00
07fffe00
06000000
06000000
06070000
06070000
0e030000
0c030000
0c030000
1fffff80
0fffff80
00030000
00030000
00030000
01c31800
01c33c00
03831e00
07030f00
0e030780
1c0303c0
18030100
001f0000
001e0000
000c0000
00000000
ENDCHAR
STARTCHAR 4F53
ENCODING 20307
SWIDTH 520 0
DWIDTH 28 0
BBX 28 28 0 -4
BITMAP
00000000
00000000
0300c000
0300c000
0300c000
0600c000
0600c000
0e7fffc0
0e7fffc0
1e03f000
1e03f000
3e06f000
3606d800
7606d800
260cdc00
060ccc00
0618ce00
0638c700
0630c380
0670c1c0
06effde0
07cffc40
0600c000
0600c000
0600c000
0600c000
0600c000
00000000
ENDCHAR
STARTCHAR 4FE1
ENCODING 20449
SWIDTH 520 0
DWIDTH 28 0
BBX 28 28 0 -4
BITMAP
00000000
02004000
0380c000
0300e000
03006000
077fffc0
067fffc0
06000000
0e000000
0e1fff80
1e1fff80
3e000000
36000000
361fff80
061fff80
06000000
06000000
061fff80
061fff80
06180180
06180180
06180180
061fff80
061fff80
06180180
06180180
06000000
00000000
ENDCHAR
STARTCHAR 5177
ENCODING 20855
SWIDTH 520 0
DWIDTH 28 0
BBX 28 28 0 -4
BITMAP
00000000
00000000
00000000
03fffc00
03000c00
03000c00
03fffc00
03fffc00
03000c00
03000c00
03fffc00
03fffc00
03000c00
03000c00
03fffc00
03fffc00
03000c00
03000c00
7fffffe0
7fffffe0
00404000
00e07000
01f07c00
07c01f00
1f0007c0
1c000380
18000000
00000000
ENDCHAR
STARTCHAR 52A1
ENCODING 21153
SWIDTH 520 0
DWIDTH 28 0
BBX 28 28 0 -4
BITMAP
00000000
00400000
00700000
00600000
00fffc00
01fffc00
01f03800
03303000
07186000
0e1dc000
000f8000
000f8000
007df000
3ff07fc0
3fce1fc0
1c0e0180
000c0000
03fffc00
03fffc00
000c0c00
001c0c00
00380c00
00780c00
01f01c00
3fc1f800
1f00f800
08008000
00000000
ENDCHAR
STARTCHAR 548C
ENCODING 21644
SWIDTH 520 0
DWIDTH 28 0
BBX 28 28 0 -4
BITMAP
00000000
00000000
00080000
01f80000
1ff80000
1cc0ff80
00c0ff80
00c0c180
00c0c180
00c0c180
3ffcc180
01c0c180
01c0c180
03c0c180
03f0c180
06f8c180
0ed8c180
0cccc180
18c8c180
38c0ff80
30c0ff80
00c0c180
00c0c180
00c0c000
00c00000
01c00000
00000000
00000000
ENDCHAR
STARTCHAR 591A
ENCODING 22810
SWIDTH 520 0
DWIDTH 28 0
BBX 28 28 0 -4
BITMAP
00000000
00200000
00700000
00600000
00fffe00
01fffc00
03801800
07003000
1e30e000
0c31c000
003b8000
001f0000
007c0000
07f60000
1fce0000
0c1fff00
003ffe00
00f00600
01c40c00
078e1c00
07073800
00037000
0001e000
0007c000
37ff0000
1ff80000
1e000000
00000000
ENDCHAR
STARTCHAR 5A31
ENCODING 23089
SWIDTH 520 0
DWIDTH 28 0
BBX 28 28 0 -4
BITMAP
00000000
00000000
03000000
070fff80
070c0180
060c0180
060c0180
060c0180
3fefff80
266fff80
0c600000
0c600000
0c6fff80
0c4fff80
18c06000
18c06000
18c06000
0fbfffc0
07bfffc0
0380d800
03e0d800
06e18c00
0e438600
1c0f0780
783c03c0
303800c0
00000000
00000000
ENDCHAR
STARTCHAR 5A92
ENCODING 23186
SWIDTH 520 0
DWIDTH 28 0
BBX 28 28 0 -4
BITMAP
00000000
00000000
02060600
03060200
073fffc0
063fffc0
06060200
06060200
3fe7fe00
3fe7fe00
0c660200
0c460200
0847fe00
18c7fe00
18c06000
18c06000
30bfffe0
1dbfffe0
0f81f800
0381f800
03c36c00
06e66600
0e4c63c0
1c3861c0
383060c0
30006000
00006000
00000000
ENDCHAR
STARTCHAR 5DE5
ENCODING 24037
SWIDTH 520 0
DWIDTH 28 0
BBX 28 28 0 -4
BITMAP
00000000
00000000
00000000
00000000
0fffff00
0fffff00
00060000
00060000
00060000
00060000
00060000
00060000
00060000
00060000
00060000
00060000
00060000
00060000
00060000
00060000
00060000
00060000
3fffffc0
3fffffc0
00000000
00000000
00000000
00000000
ENDCHAR
STARTCHAR 5F0F
ENCODING 24335
SWIDTH 520 0
DWIDTH 28 0
BBX 28 28 0 -4
BITMAP
00000000
00000000
00038000
00039800
00039c00
00038e00
00038400
3fffff80
3fffff80
00018000
00018000
00018000
00018000
1ffdc000
1ffcc000
01c0c000
01c0c000
01c0e000
01c06000
01c07000
01c23080
01fe38e0
07f818c0
3f801fc0
1c000fc0
00000780
00000000
00000000
ENDCHAR
STARTCHAR 5FC3
ENCODING 24515
SWIDTH 520 0
DWIDTH 28 0
BBX 28 28 0 -4
BITMAP
00000000
00000000
00000000
000c0000
000e0000
00070000
00030000
00030000
00000000
00000000
08300400
0e300e00
0c300600
0c300300
0c300380
1c3001c0
1c3001c0
18300000
18300000
38300000
00300c00
00300c00
00301c00
003ff800
003ff800
00000000
00000000
00000000
ENDCHAR
STARTCHAR 606F
ENCODING 24687
SWIDTH 520 0
DWIDTH 28 0
BBX 28 28 0 -4
BITMAP
00000000
00100000
00180000
00300000
07fffe00
07fffe00
06000600
06000600
07fffe00
06000600
06000600
07fffe00
07fffe00
06000600
06000600
07fffe00
00000000
00020000
00c60600
0cc70700
18c30380
18c20180
18c019c0
30c03880
10fff000
007fe000
00000000
00000000
ENDCHAR
STARTCHAR 60C5
ENCODING 24773
SWIDTH 520 0
DWIDTH 28 0
BBX 28 28 0 -4
BITMAP
00000000
06006000
06006000
06086040
060fffc0
06006000
06406000
1ecfff80
36c06000
36406000
363fffe0
361fffe0
36000000
660fff00
0607ff00
06060300
06060300
0607ff00
06060300
06060300
0607ff00
0607ff00
06060300
06060300
06060300
06060700
060e0600
00000000
ENDCHAR
STARTCHAR 620F
ENCODING 25103
SWIDTH 520 0
DWIDTH 28 0
BBX 28 28 0 -4
BITMAP
00000000
00000000
00018000
00018000
00019c00
3fe18e00
3fe18600
00e18000
00c18080
00c18fc0
00c1ff00
38dfe000
1cdd8400
0cc0c700
0780c600
0780ce00
0380cc00
03c0fc00
03c07800
06e07000
0e707000
1c31f800
38239c60
78070ee0
301e07c0
000c03c0
00000000
00000000
ENDCHAR
STARTCHAR 666F
ENCODING 26223
SWIDTH 520 0
DWIDTH 28 0
BBX 28 28 0 -4
BITMAP
00000000
00000000
07fffc00
06000c00
06000c00
07fffc00
07fffc00
06000c00
07fffc00
07fffc00
00060000
00060000
3fffffc0
3fffffc0
00000000
03fffc00
03fffc00
03000c00
03000c00
03fffc00
00060000
00c62000
01e63c00
07861f00
0f060780
0c1e0180
000c0000
00000000
ENDCHAR
STARTCHAR 670D
ENCODING 26381
SWIDTH 520 0
DWIDTH 28 0
BBX 28 28 0 -4
BITMAP
00000000
00000000
00000000
0ff3ff80
0ff3ff00
0c330300
0c330300
0c330300
0c331f00
0ff30e00
0c330000
0c330000
0c33ff80
0c33ff80
0c336180
0ff32300
0c333300
18333300
18333300
18331e00
18331e00
18330e00
38331f00
30733bc0
31e371c0
10c32080
00000000
00000000
ENDCHAR
STARTCHAR 6A21
ENCODING 27169
SWIDTH 520 0
DWIDTH 28 0
BBX 28 28 0 -4
BITMAP
00000000
00000000
06018c00
06018c00
061fffc0
061fffc0
06018c00
3fc18c00
3fcfff80
060fff80
060c0180
060c0180
0e8fff80
0fcfff80
1ecc0180
1e6fff80
364fff80
76006000
26006000
063fffc0
063fffc0
0600d800
0601cc00
06038600
060f03c0
063c01c0
06100000
00000000
ENDCHAR
STARTCHAR 6E38
ENCODING 28216
SWIDTH 520 0
DWIDTH 28 0
BBX 28 28 0 -4
BITMAP
00000000
00000000
10101800
18381800
1c183000
0e1030c0
04003fc0
01ff6000
00606000
2060c000
3861ffc0
3c60bfc0
0c7e0180
047e0300
00660600
00660600
00667fe0
0e667fe0
0c660600
0c660600
18c60600
18c60600
18c60600
39860600
339e0e00
331c3c00
00001000
00000000
ENDCHAR
STARTCHAR 7535
ENCODING 30005
SWIDTH 520 0
DWIDTH 28 0
BBX 28 28 0 -4
BITMAP
00000000
00000000
000c0000
000c0000
000c0000
000c0000
0ffffe00
0ffffc00
0c0c0c00
0c0c0c00
0c0c0c00
0c0c0c00
0ffffc00
0ffffc00
0c0c0c00
0c0c0c00
0c0c0c00
0c0c0c00
0ffffc00
0c0c0000
0c0c0000
0c0c0080
000c00c0
000e01c0
0007ff80
0003fe00
00000000
00000000
ENDCHAR
STARTCHAR 7BB1
ENCODING 31665
SWIDTH 520 0
DWIDTH 28 0
BBX 28 28 0 -4
BITMAP
00000000
00000000
03807000
03006000
07feffc0
0ec3ffc0
1c618c00
38618600
30800400
03800000
0187ff80
0187ff80
01860180
3ff60180
0387ff80
0387ff80
07e60180
07e60180
0db60180
0dbfff80
19860180
39860180
31860180
0187ff80
0187ff80
01860180
03860180
00000000
ENDCHAR
STARTCHAR 7C3F
ENCODING 31807
SWIDTH 520 0
DWIDTH 28 0
BBX 28 28 0 -4
BITMAP
00000000
02004000
0300e000
0604c080
0ffdff80
1c638c00
38610c00
30401000
00009c00
0e7fffc0
077fffc0
02008000
007fff00
307fff00
3c608300
0c7fff00
00608300
007fff00
047fff00
06608300
0c000600
0cffffc0
1cffffc0
18080600
381c0600
18083e00
00001800
00000000
ENDCHAR
STARTCHAR 7EDC
ENCODING 32476
SWIDTH 520 0
DWIDTH 28 0
BBX 28 28 0 -4
BITMAP
00000000
00000000
0001c000
07018000
07038000
0603ff80
0c07ff00
0c070700
18ef8600
18cd8c00
31dcdc00
7f88f800
33007000
0300fc00
0603df80
063f07c0
0c1c00c0
3fc7ff00
1fc60300
10060300
00060300
00060300
07e60300
3fe7ff00
1c07ff00
00060300
00060300
00000000
ENDCHAR
STARTCHAR 7F51
ENCODING 32593
SWIDTH 520 0
DWIDTH 28 0
BBX 28 28 0 -4
BITMAP
00000000
00000000
00000000
1fffff80
1fffff80
1c000380
1c000380
1c0c1f80
1f0c1b80
1d991b80
1ddb9380
1cd9b380
1c70f380
1c70e380
1c306380
1c706380
1c78f380
1cd8f380
1ccd9b80
1d839b80
1f871780
1f060380
1c000380
1c000380
1c000f00
1c000f00
00000000
00000000
ENDCHAR
STARTCHAR 7F6E
ENCODING 32622
SWIDTH 520 0
DWIDTH 28 0
BBX 28 28 0 -4
BITMAP
00000000
00000000
00000000
0fffff00
0c30c300
0c30c300
0fffff00
00000000
00070000
00060000
1fffff80
00060000
00060000
03fffc00
03000c00
03000c00
03fffc00
03000c00
03000c00
03fffc00
03000c00
03000c00
03fffc00
03000c00
3fffffe0
3fffffe0
00000000
00000000
ENDCHAR
STARTCHAR 8BBE
ENCODING 35774
SWIDTH 520 0
DWIDTH 28 0
BBX 28 28 0 -4
BITMAP
00000000
00000000
0407fc00
0e07fc00
07060c00
03860c00
01060c00
000e0c00
000c0c00
001c0fc0
3e380fc0
3e100000
06000000
063ffe00
060c0600
060c0e00
060e0c00
06061c00
06471800
06e3b800
07c1f000
0780e000
0703f000
060fbe00
007e0fc0
007803c0
00200040
00000000
ENDCHAR
STARTCHAR 8BDD
ENCODING 35805
SWIDTH 520 0
DWIDTH 28 0
BBX 28 28 0 -4
BITMAP
00000000
00000000
04000700
0e03ff00
061ff800
07184000
02004000
00004000
00004000
007fffc0
7e7fffc0
7e004000
06004000
06004000
06004000
061fff00
061fff00
06180300
06180300
06580300
06f80300
07d80300
07980300
0f1fff00
06180300
00180300
00180000
00000000
ENDCHAR
STARTCHAR 901A
ENCODING 36890
SWIDTH 520 0
DWIDTH 28 0
BBX 28 28 0 -4
BITMAP
00000000
00000000
00000000
183fff00
1c000e00
0e031c00
0603b800
0401e000
007fff80
007fff80
0060c180
3c60c180
3c7fff80
0c3fff80
0c20c180
0c20c180
0c3fff80
0c3fff80
0c60c180
0c60c180
0c60cf80
0c60c700
0f000400
39e000c0
707fffc0
300fffc0
00000000
00000000
ENDCHAR
ENDFONT