STARTFONT 2.1
FONTBOUNDINGBOX 16 14 0 -2
CHARS 190
STARTCHAR 0020
ENCODING 32
SWIDTH 520 0
DWIDTH 4 0
BBX 4 14 0 -2
BITMAP
00
00
00
00
00
00
00
00
00
00
00
00
00
00
ENDCHAR
STARTCHAR 0021
ENCODING 33
SWIDTH 520 0
DWIDTH 5 0
BBX 5 14 0 -2
BITMAP
00
00
00
60
60
60
60
60
60
00
60
60
00
00
ENDCHAR
STARTCHAR 0022
ENCODING 34
SWIDTH 520 0
DWIDTH 7 0
BBX 7 14 0 -2
BITMAP
00
00
6c
6c
6c
00
00
00
00
00
00
00
00
00
ENDCHAR
STARTCHAR 0023
ENCODING 35
SWIDTH 520 0
DWIDTH 10 0
BBX 10 14 0 -2
BITMAP
0000
0000
0000
0900
0900
3f80
3f80
1200
7f00
7f00
2400
2400
0000
0000
ENDCHAR
STARTCHAR 0024
ENCODING 36
SWIDTH 520 0
DWIDTH 9 0
BBX 9 14 0 -2
BITMAP
0000
0000
0800
0800
3e00
6900
6800
7e00
3f00
0b00
4b00
3e00
0800
0800
ENDCHAR
STARTCHAR 0025
ENCODING 37
SWIDTH 520 0
DWIDTH 15 0
BBX 15 14 0 -2
BITMAP
0000
0000
0000
3840
6c40
6c80
6cb8
6d6c
3a6c
026c
046c
0438
0000
0000
ENDCHAR
STARTCHAR 0026
ENCODING 38
SWIDTH 520 0
DWIDTH 10 0
BBX 10 14 0 -2
BITMAP
0000
0000
0000
3800
6c00
6c00
6c00
3980
6d00
6600
6300
3d80
0000
0000
ENDCHAR
STARTCHAR 0027
ENCODING 39
SWIDTH 520 0
DWIDTH 4 0
BBX 4 14 0 -2
BITMAP
00
00
60
60
60
00
00
00
00
00
00
00
00
00
ENDCHAR
STARTCHAR 0028
ENCODING 40
SWIDTH 520 0
DWIDTH 7 0
BBX 7 14 0 -2
BITMAP
00
00
18
30
30
60
60
60
60
60
60
30
30
18
ENDCHAR
STARTCHAR 0029
ENCODING 41
SWIDTH 520 0
DWIDTH 7 0
BBX 7 14 0 -2
BITMAP
00
00
30
18
18
0c
0c
0c
0c
0c
0c
18
18
30
ENDCHAR
STARTCHAR 002A
ENCODING 42
SWIDTH 520 0
DWIDTH 9 0
BBX 9 14 0 -2
BITMAP
0000
0000
0800
2a00
1c00
1c00
2a00
0800
0000
0000
0000
0000
0000
0000
ENDCHAR
STARTCHAR 002B
ENCODING 43
SWIDTH 520 0
DWIDTH 10 0
BBX 10 14 0 -2
BITMAP
0000
0000
0000
0000
0800
0800
0800
7f00
0800
0800
0800
0000
0000
0000
ENDCHAR
STARTCHAR 002C
ENCODING 44
SWIDTH 520 0
DWIDTH 4 0
BBX 4 14 0 -2
BITMAP
00
00
00
00
00
00
00
00
00
00
60
60
60
40
ENDCHAR
STARTCHAR 002D
ENCODING 45
SWIDTH 520 0
DWIDTH 6 0
BBX 6 14 0 -2
BITMAP
00
00
00
00
00
00
00
78
00
00
00
00
00
00
ENDCHAR
STARTCHAR 002E
ENCODING 46
SWIDTH 520 0
DWIDTH 4 0
BBX 4 14 0 -2
BITMAP
00
00
00
00
00
00
00
00
00
00
60
60
00
00
ENDCHAR
STARTCHAR 002F
ENCODING 47
SWIDTH 520 0
DWIDTH 8 0
BBX 8 14 0 -2
BITMAP
00
00
06
06
0c
0c
0c
18
18
30
30
30
60
60
ENDCHAR
STARTCHAR 0030
ENCODING 48
SWIDTH 520 0
DWIDTH 9 0
BBX 9 14 0 -2
BITMAP
0000
0000
0000
3e00
6300
6300
6300
6300
6300
6300
6300
3e00
0000
0000
ENDCHAR
STARTCHAR 0031
ENCODING 49
SWIDTH 520 0
DWIDTH 9 0
BBX 9 14 0 -2
BITMAP
0000
0000
0000
0c00
3c00
0c00
0c00
0c00
0c00
0c00
0c00
3f00
0000
0000
ENDCHAR
STARTCHAR 0032
ENCODING 50
SWIDTH 520 0
DWIDTH 9 0
BBX 9 14 0 -2
BITMAP
0000
0000
0000
3e00
6300
0300
0300
0600
0c00
1800
3000
7f00
0000
0000
ENDCHAR
STARTCHAR 0033
ENCODING 51
SWIDTH 520 0
DWIDTH 9 0
BBX 9 14 0 -2
BITMAP
0000
0000
0000
3e00
6300
0300
0300
1e00
0300
0300
6300
3e00
0000
0000
ENDCHAR
STARTCHAR 0034
ENCODING 52
SWIDTH 520 0
DWIDTH 9 0
BBX 9 14 0 -2
BITMAP
0000
0000
0000
0600
0e00
1600
1600
2600
4600
7f00
0600
0600
0000
0000
ENDCHAR
STARTCHAR 0035
ENCODING 53
SWIDTH 520 0
DWIDTH 9 0
BBX 9 14 0 -2
BITMAP
0000
0000
0000
3f00
3000
3000
3e00
0300
0300
0300
6300
3e00
0000
0000
ENDCHAR
STARTCHAR 0036
ENCODING 54
SWIDTH 520 0
DWIDTH 9 0
BBX 9 14 0 -2
BITMAP
0000
0000
0000
1e00
3000
6000
7e00
6300
6300
6300
6300
3e00
0000
0000
ENDCHAR
STARTCHAR 0037
ENCODING 55
SWIDTH 520 0
DWIDTH 9 0
BBX 9 14 0 -2
BITMAP
0000
0000
0000
7f00
0300
0600
0600
0c00
0c00
1800
1800
3000
0000
0000
ENDCHAR
STARTCHAR 0038
ENCODING 56
SWIDTH 520 0
DWIDTH 9 0
BBX 9 14 0 -2
BITMAP
0000
0000
0000
3e00
6300
6300
6300
3e00
6300
6300
6300
3e00
0000
0000
ENDCHAR
STARTCHAR 0039
ENCODING 57
SWIDTH 520 0
DWIDTH 9 0
BBX 9 14 0 -2
BITMAP
0000
0000
0000
3e00
6300
6300
6300
6300
3f00
0300
0600
3c00
0000
0000
ENDCHAR
STARTCHAR 003A
ENCODING 58
SWIDTH 520 0
DWIDTH 5 0
BBX 5 14 0 -2
BITMAP
00
00
00
00
00
60
60
00
00
00
60
60
00
00
ENDCHAR
STARTCHAR 003B
ENCODING 59
SWIDTH 520 0
DWIDTH 5 0
BBX 5 14 0 -2
BITMAP
00
00
00
00
00
60
60
00
00
00
60
60
60
40
ENDCHAR
STARTCHAR 003C
ENCODING 60
SWIDTH 520 0
DWIDTH 10 0
BBX 10 14 0 -2
BITMAP
0000
0000
0000
0000
0100
0600
1800
6000
6000
1800
0600
0100
0000
0000
ENDCHAR
STARTCHAR 003D
ENCODING 61
SWIDTH 520 0
DWIDTH 10 0
BBX 10 14 0 -2
BITMAP
0000
0000
0000
0000
0000
0000
7f00
0000
0000
7f00
0000
0000
0000
0000
ENDCHAR
STARTCHAR 003E
ENCODING 62
SWIDTH 520 0
DWIDTH 10 0
BBX 10 14 0 -2
BITMAP
0000
0000
0000
0000
4000
3000
0c00
0300
0300
0c00
3000
4000
0000
0000
ENDCHAR
STARTCHAR 003F
ENCODING 63
SWIDTH 520 0
DWIDTH 7 0
BBX 7 14 0 -2
BITMAP
00
00
00
38
4c
0c
18
30
30
00
30
30
00
00
ENDCHAR
STARTCHAR 0040
ENCODING 64
SWIDTH 520 0
DWIDTH 12 0
BBX 12 14 0 -2
BITMAP
0000
0000
0000
0f00
30c0
2f40
5b20
5b20
5b20
5b20
2fc0
3000
0f00
0000
ENDCHAR
STARTCHAR 0041
ENCODING 65
SWIDTH 520 0
DWIDTH 9 0
BBX 9 14 0 -2
BITMAP
0000
0000
0000
1c00
1c00
3600
3600
3600
3600
7f00
6300
6300
0000
0000
ENDCHAR
STARTCHAR 0042
ENCODING 66
SWIDTH 520 0
DWIDTH 9 0
BBX 9 14 0 -2
BITMAP
0000
0000
0000
7c00
6600
6600
6600
7e00
6300
6300
6300
7e00
0000
0000
ENDCHAR
STARTCHAR 0043
ENCODING 67
SWIDTH 520 0
DWIDTH 9 0
BBX 9 14 0 -2
BITMAP
0000
0000
0000
1e00
3100
6000
6000
6000
6000
6000
3100
1e00
0000
0000
ENDCHAR
STARTCHAR 0044
ENCODING 68
SWIDTH 520 0
DWIDTH 10 0
BBX 10 14 0 -2
BITMAP
0000
0000
0000
7e00
6300
6180
6180
6180
6180
6180
6300
7e00
0000
0000
ENDCHAR
STARTCHAR 0045
ENCODING 69
SWIDTH 520 0
DWIDTH 8 0
BBX 8 14 0 -2
BITMAP
00
00
00
7e
60
60
60
7e
60
60
60
7e
00
00
ENDCHAR
STARTCHAR 0046
ENCODING 70
SWIDTH 520 0
DWIDTH 8 0
BBX 8 14 0 -2
BITMAP
00
00
00
7e
60
60
60
7e
60
60
60
60
00
00
ENDCHAR
STARTCHAR 0047
ENCODING 71
SWIDTH 520 0
DWIDTH 10 0
BBX 10 14 0 -2
BITMAP
0000
0000
0000
1f00
3080
6000
6000
6000
6780
6180
3180
1f80
0000
0000
ENDCHAR
STARTCHAR 0048
ENCODING 72
SWIDTH 520 0
DWIDTH 10 0
BBX 10 14 0 -2
BITMAP
0000
0000
0000
6180
6180
6180
6180
7f80
6180
6180
6180
6180
0000
0000
ENDCHAR
STARTCHAR 0049
ENCODING 73
SWIDTH 520 0
DWIDTH 6 0
BBX 6 14 0 -2
BITMAP
00
00
00
78
30
30
30
30
30
30
30
78
00
00
ENDCHAR
STARTCHAR 004A
ENCODING 74
SWIDTH 520 0
DWIDTH 7 0
BBX 7 14 0 -2
BITMAP
00
00
00
7c
0c
0c
0c
0c
0c
0c
0c
f8
00
00
ENDCHAR
STARTCHAR 004B
ENCODING 75
SWIDTH 520 0
DWIDTH 9 0
BBX 9 14 0 -2
BITMAP
0000
0000
0000
6300
6600
6c00
7800
7000
7800
6c00
6600
6300
0000
0000
ENDCHAR
STARTCHAR 004C
ENCODING 76
SWIDTH 520 0
DWIDTH 8 0
BBX 8 14 0 -2
BITMAP
00
00
00
60
60
60
60
60
60
60
60
7f
00
00
ENDCHAR
STARTCHAR 004D
ENCODING 77
SWIDTH 520 0
DWIDTH 11 0
BBX 11 14 0 -2
BITMAP
0000
0000
0000
60c0
71c0
71c0
5ac0
5ac0
4cc0
4cc0
40c0
40c0
0000
0000
ENDCHAR
STARTCHAR 004E
ENCODING 78
SWIDTH 520 0
DWIDTH 10 0
BBX 10 14 0 -2
BITMAP
0000
0000
0000
6080
7080
5880
5880
4c80
4680
4680
4380
4180
0000
0000
ENDCHAR
STARTCHAR 004F
ENCODING 79
SWIDTH 520 0
DWIDTH 11 0
BBX 11 14 0 -2
BITMAP
0000
0000
0000
1f00
3180
60c0
60c0
60c0
60c0
60c0
3180
1f00
0000
0000
ENDCHAR
STARTCHAR 0050
ENCODING 80
SWIDTH 520 0
DWIDTH 9 0
BBX 9 14 0 -2
BITMAP
0000
0000
0000
7e00
6300
6300
6300
6300
7e00
6000
6000
6000
0000
0000
ENDCHAR
STARTCHAR 0051
ENCODING 81
SWIDTH 520 0
DWIDTH 11 0
BBX 11 14 0 -2
BITMAP
0000
0000
0000
1f00
3180
60c0
60c0
60c0
60c0
60c0
3180
1f00
0600
03c0
ENDCHAR
STARTCHAR 0052
ENCODING 82
SWIDTH 520 0
DWIDTH 9 0
BBX 9 14 0 -2
BITMAP
0000
0000
0000
7e00
6300
6300
6300
7e00
6c00
6600
6300
6180
0000
0000
ENDCHAR
STARTCHAR 0053
ENCODING 83
SWIDTH 520 0
DWIDTH 9 0
BBX 9 14 0 -2
BITMAP
0000
0000
0000
3e00
6100
6000
7000
3e00
0700
0300
4300
3e00
0000
0000
ENDCHAR
STARTCHAR 0054
ENCODING 84
SWIDTH 520 0
DWIDTH 8 0
BBX 8 14 0 -2
BITMAP
00
00
00
ff
18
18
18
18
18
18
18
18
00
00
ENDCHAR
STARTCHAR 0055
ENCODING 85
SWIDTH 520 0
DWIDTH 10 0
BBX 10 14 0 -2
BITMAP
0000
0000
0000
6180
6180
6180
6180
6180
6180
6180
6180
3f00
0000
0000
ENDCHAR
STARTCHAR 0056
ENCODING 86
SWIDTH 520 0
DWIDTH 9 0
BBX 9 14 0 -2
BITMAP
0000
0000
0000
6300
6300
6300
3600
3600
3600
1c00
1c00
1c00
0000
0000
ENDCHAR
STARTCHAR 0057
ENCODING 87
SWIDTH 520 0
DWIDTH 14 0
BBX 14 14 0 -2
BITMAP
0000
0000
0000
6318
6318
6318
3330
37b0
34b0
1ce0
1860
1860
0000
0000
ENDCHAR
STARTCHAR 0058
ENCODING 88
SWIDTH 520 0
DWIDTH 9 0
BBX 9 14 0 -2
BITMAP
0000
0000
0000
6300
6300
3600
1c00
1c00
1c00
3600
6300
6300
0000
0000
ENDCHAR
STARTCHAR 0059
ENCODING 89
SWIDTH 520 0
DWIDTH 10 0
BBX 10 14 0 -2
BITMAP
0000
0000
0000
6180
6180
3300
1e00
0c00
0c00
0c00
0c00
0c00
0000
0000
ENDCHAR
STARTCHAR 005A
ENCODING 90
SWIDTH 520 0
DWIDTH 8 0
BBX 8 14 0 -2
BITMAP
00
00
00
7e
0c
0c
18
18
30
30
60
7e
00
00
ENDCHAR
STARTCHAR 005B
ENCODING 91
SWIDTH 520 0
DWIDTH 6 0
BBX 6 14 0 -2
BITMAP
00
00
78
60
60
60
60
60
60
60
60
60
60
78
ENDCHAR
STARTCHAR 005C
ENCODING 92
SWIDTH 520 0
DWIDTH 8 0
BBX 8 14 0 -2
BITMAP
00
00
60
60
30
30
30
18
18
0c
0c
0c
06
06
ENDCHAR
STARTCHAR 005D
ENCODING 93
SWIDTH 520 0
DWIDTH 6 0
BBX 6 14 0 -2
BITMAP
00
00
78
18
18
18
18
18
18
18
18
18
18
78
ENDCHAR
STARTCHAR 005E
ENCODING 94
SWIDTH 520 0
DWIDTH 10 0
BBX 10 14 0 -2
BITMAP
0000
0000
0000
0c00
1e00
3300
6180
0000
0000
0000
0000
0000
0000
0000
ENDCHAR
STARTCHAR 005F
ENCODING 95
SWIDTH 520 0
DWIDTH 9 0
BBX 9 14 0 -2
BITMAP
0000
0000
0000
0000
0000
0000
0000
0000
0000
0000
0000
0000
0000
ff80
ENDCHAR
STARTCHAR 0060
ENCODING 96
SWIDTH 520 0
DWIDTH 9 0
BBX 9 14 0 -2
BITMAP
0000
0000
3000
1800
0000
0000
0000
0000
0000
0000
0000
0000
0000
0000
ENDCHAR
STARTCHAR 0061
ENCODING 97
SWIDTH 520 0
DWIDTH 8 0
BBX 8 14 0 -2
BITMAP
00
00
00
00
00
3c
06
3e
66
66
66
3e
00
00
ENDCHAR
STARTCHAR 0062
ENCODING 98
SWIDTH 520 0
DWIDTH 8 0
BBX 8 14 0 -2
BITMAP
00
00
60
60
60
7c
66
66
66
66
66
7c
00
00
ENDCHAR
STARTCHAR 0063
ENCODING 99
SWIDTH 520 0
DWIDTH 7 0
BBX 7 14 0 -2
BITMAP
00
00
00
00
00
3c
62
60
60
60
62
3c
00
00
ENDCHAR
STARTCHAR 0064
ENCODING 100
SWIDTH 520 0
DWIDTH 8 0
BBX 8 14 0 -2
BITMAP
00
00
06
06
06
3e
66
66
66
66
66
3e
00
00
ENDCHAR
STARTCHAR 0065
ENCODING 101
SWIDTH 520 0
DWIDTH 8 0
BBX 8 14 0 -2
BITMAP
00
00
00
00
00
3c
66
66
7e
60
62
3c
00
00
ENDCHAR
STARTCHAR 0066
ENCODING 102
SWIDTH 520 0
DWIDTH 5 0
BBX 5 14 0 -2
BITMAP
00
00
38
60
60
f8
60
60
60
60
60
60
00
00
ENDCHAR
STARTCHAR 0067
ENCODING 103
SWIDTH 520 0
DWIDTH 8 0
BBX 8 14 0 -2
BITMAP
00
00
00
00
00
3e
66
66
66
66
66
3e
06
3c
ENDCHAR
STARTCHAR 0068
ENCODING 104
SWIDTH 520 0
DWIDTH 8 0
BBX 8 14 0 -2
BITMAP
00
00
60
60
60
7c
66
66
66
66
66
66
00
00
ENDCHAR
STARTCHAR 0069
ENCODING 105
SWIDTH 520 0
DWIDTH 4 0
BBX 4 14 0 -2
BITMAP
00
00
60
60
00
60
60
60
60
60
60
60
00
00
ENDCHAR
STARTCHAR 006A
ENCODING 106
SWIDTH 520 0
DWIDTH 5 0
BBX 5 14 0 -2
BITMAP
00
00
30
30
00
70
30
30
30
30
30
30
30
e0
ENDCHAR
STARTCHAR 006B
ENCODING 107
SWIDTH 520 0
DWIDTH 8 0
BBX 8 14 0 -2
BITMAP
00
00
60
60
60
66
6c
78
78
6c
66
63
00
00
ENDCHAR
STARTCHAR 006C
ENCODING 108
SWIDTH 520 0
DWIDTH 4 0
BBX 4 14 0 -2
BITMAP
00
00
60
60
60
60
60
60
60
60
60
60
00
00
ENDCHAR
STARTCHAR 006D
ENCODING 109
SWIDTH 520 0
DWIDTH 12 0
BBX 12 14 0 -2
BITMAP
0000
0000
0000
0000
0000
6cc0
7760
6660
6660
6660
6660
6660
0000
0000
ENDCHAR
STARTCHAR 006E
ENCODING 110
SWIDTH 520 0
DWIDTH 8 0
BBX 8 14 0 -2
BITMAP
00
00
00
00
00
7c
66
66
66
66
66
66
00
00
ENDCHAR
STARTCHAR 006F
ENCODING 111
SWIDTH 520 0
DWIDTH 8 0
BBX 8 14 0 -2
BITMAP
00
00
00
00
00
3c
66
66
66
66
66
3c
00
00
ENDCHAR
STARTCHAR 0070
ENCODING 112
SWIDTH 520 0
DWIDTH 8 0
BBX 8 14 0 -2
BITMAP
00
00
00
00
00
7c
66
66
66
66
66
7c
60
60
ENDCHAR
STARTCHAR 0071
ENCODING 113
SWIDTH 520 0
DWIDTH 8 0
BBX 8 14 0 -2
BITMAP
00
00
00
00
00
3e
66
66
66
66
66
3e
06
06
ENDCHAR
STARTCHAR 0072
ENCODING 114
SWIDTH 520 0
DWIDTH 6 0
BBX 6 14 0 -2
BITMAP
00
00
00
00
00
6c
7c
60
60
60
60
60
00
00
ENDCHAR
STARTCHAR 0073
ENCODING 115
SWIDTH 520 0
DWIDTH 7 0
BBX 7 14 0 -2
BITMAP
00
00
00
00
00
3c
60
60
38
0c
0c
78
00
00
ENDCHAR
STARTCHAR 0074
ENCODING 116
SWIDTH 520 0
DWIDTH 5 0
BBX 5 14 0 -2
BITMAP
00
00
00
60
60
f8
60
60
60
60
60
38
00
00
ENDCHAR
STARTCHAR 0075
ENCODING 117
SWIDTH 520 0
DWIDTH 8 0
BBX 8 14 0 -2
BITMAP
00
00
00
00
00
66
66
66
66
66
66
3e
00
00
ENDCHAR
STARTCHAR 0076
ENCODING 118
SWIDTH 520 0
DWIDTH 8 0
BBX 8 14 0 -2
BITMAP
00
00
00
00
00
66
66
66
3c
3c
3c
18
00
00
ENDCHAR
STARTCHAR 0077
ENCODING 119
SWIDTH 520 0
DWIDTH 12 0
BBX 12 14 0 -2
BITMAP
0000
0000
0000
0000
0000
6660
6660
6660
6960
39c0
30c0
30c0
0000
0000
ENDCHAR
STARTCHAR 0078
ENCODING 120
SWIDTH 520 0
DWIDTH 8 0
BBX 8 14 0 -2
BITMAP
00
00
00
00
00
66
66
3c
18
3c
66
66
00
00
ENDCHAR
STARTCHAR 0079
ENCODING 121
SWIDTH 520 0
DWIDTH 8 0
BBX 8 14 0 -2
BITMAP
00
00
00
00
00
66
66
66
3c
3c
3c
18
18
30
ENDCHAR
STARTCHAR 007A
ENCODING 122
SWIDTH 520 0
DWIDTH 7 0
BBX 7 14 0 -2
BITMAP
00
00
00
00
00
7c
0c
18
38
30
60
7c
00
00
ENDCHAR
STARTCHAR 007B
ENCODING 123
SWIDTH 520 0
DWIDTH 9 0
BBX 9 14 0 -2
BITMAP
0000
0000
0e00
1800
1800
1800
1800
7000
1800
1800
1800
1800
1800
0e00
ENDCHAR
STARTCHAR 007C
ENCODING 124
SWIDTH 520 0
DWIDTH 6 0
BBX 6 14 0 -2
BITMAP
00
00
30
30
30
30
30
30
30
30
30
30
30
30
ENDCHAR
STARTCHAR 007D
ENCODING 125
SWIDTH 520 0
DWIDTH 9 0
BBX 9 14 0 -2
BITMAP
0000
0000
3800
0c00
0c00
0c00
0c00
0700
0c00
0c00
0c00
0c00
0c00
3800
ENDCHAR
STARTCHAR 007E
ENCODING 126
SWIDTH 520 0
DWIDTH 10 0
BBX 10 14 0 -2
BITMAP
0000
0000
0000
0000
0000
0000
3080
4880
4480
4300
0000
0000
0000
0000
ENDCHAR
STARTCHAR 00A7
ENCODING 167
SWIDTH 520 0
DWIDTH 9 0
BBX 9 14 0 -2
BITMAP
0000
0000
0000
3e00
6100
6000
3e00
6300
6300
6300
3e00
0300
4300
3e00
ENDCHAR
STARTCHAR 00AD
ENCODING 173
SWIDTH 520 0
DWIDTH 6 0
BBX 6 14 0 -2
BITMAP
00
00
00
00
00
00
00
78
00
00
00
00
00
00
ENDCHAR
STARTCHAR 0401
ENCODING 1025
SWIDTH 520 0
DWIDTH 8 0
BBX 8 14 0 -2
BITMAP
24
24
00
7e
60
60
60
7e
60
60
60
7e
00
00
ENDCHAR
STARTCHAR 0402
ENCODING 1026
SWIDTH 520 0
DWIDTH 11 0
BBX 11 14 0 -2
BITMAP
0000
0000
0000
ff00
1800
1800
1f80
18c0
18c0
18c0
18c0
1980
0000
0000
ENDCHAR
STARTCHAR 0403
ENCODING 1027
SWIDTH 520 0
DWIDTH 8 0
BBX 8 14 0 -2
BITMAP
06
0c
00
7f
60
60
60
60
60
60
60
60
00
00
ENDCHAR
STARTCHAR 0404
ENCODING 1028
SWIDTH 520 0
DWIDTH 9 0
BBX 9 14 0 -2
BITMAP
0000
0000
0000
1e00
3100
6000
6000
7c00
6000
6000
3100
1e00
0000
0000
ENDCHAR
STARTCHAR 0405
ENCODING 1029
SWIDTH 520 0
DWIDTH 9 0
BBX 9 14 0 -2
BITMAP
0000
0000
0000
3e00
6100
6000
7000
3e00
0700
0300
4300
3e00
0000
0000
ENDCHAR
STARTCHAR 0406
ENCODING 1030
SWIDTH 520 0
DWIDTH 6 0
BBX 6 14 0 -2
BITMAP
00
00
00
78
30
30
30
30
30
30
30
78
00
00
ENDCHAR
STARTCHAR 0407
ENCODING 1031
SWIDTH 520 0
DWIDTH 6 0
BBX 6 14 0 -2
BITMAP
48
48
00
78
30
30
30
30
30
30
30
78
00
00
ENDCHAR
STARTCHAR 0408
ENCODING 1032
SWIDTH 520 0
DWIDTH 7 0
BBX 7 14 0 -2
BITMAP
00
00
00
7c
0c
0c
0c
0c
0c
0c
0c
f8
00
00
ENDCHAR
STARTCHAR 0409
ENCODING 1033
SWIDTH 520 0
DWIDTH 15 0
BBX 15 14 0 -2
BITMAP
0000
0000
0000
3f80
3180
3180
3180
31f8
318c
318c
618c
c1f8
0000
0000
ENDCHAR
STARTCHAR 040A
ENCODING 1034
SWIDTH 520 0
DWIDTH 15 0
BBX 15 14 0 -2
BITMAP
0000
0000
0000
6180
6180
6180
6180
7ff8
618c
618c
618c
61f8
0000
0000
ENDCHAR
STARTCHAR 040B
ENCODING 1035
SWIDTH 520 0
DWIDTH 11 0
BBX 11 14 0 -2
BITMAP
0000
0000
0000
ff00
1800
1800
1f80
18c0
18c0
18c0
18c0
18c0
0000
0000
ENDCHAR
STARTCHAR 040C
ENCODING 1036
SWIDTH 520 0
DWIDTH 9 0
BBX 9 14 0 -2
BITMAP
0c00
1800
0000
6300
6700
6400
6c00
7800
7800
6c00
6600
6300
0000
0000
ENDCHAR
STARTCHAR 040E
ENCODING 1038
SWIDTH 520 0
DWIDTH 9 0
BBX 9 14 0 -2
BITMAP
3600
1c00
0000
6300
6300
3600
3600
1c00
1c00
0c00
7800
7000
0000
0000
ENDCHAR
STARTCHAR 040F
ENCODING 1039
SWIDTH 520 0
DWIDTH 10 0
BBX 10 14 0 -2
BITMAP
0000
0000
0000
6180
6180
6180
6180
6180
6180
6180
6180
7f80
0c00
0c00
ENDCHAR
STARTCHAR 0410
ENCODING 1040
SWIDTH 520 0
DWIDTH 9 0
BBX 9 14 0 -2
BITMAP
0000
0000
0000
1c00
1c00
3600
3600
3600
3600
7f00
6300
6300
0000
0000
ENDCHAR
STARTCHAR 0411
ENCODING 1041
SWIDTH 520 0
DWIDTH 9 0
BBX 9 14 0 -2
BITMAP
0000
0000
0000
7e00
6000
6000
6000
7e00
6300
6300
6300
7e00
0000
0000
ENDCHAR
STARTCHAR 0412
ENCODING 1042
SWIDTH 520 0
DWIDTH 9 0
BBX 9 14 0 -2
BITMAP
0000
0000
0000
7c00
6600
6600
6600
7e00
6300
6300
6300
7e00
0000
0000
ENDCHAR
STARTCHAR 0413
ENCODING 1043
SWIDTH 520 0
DWIDTH 8 0
BBX 8 14 0 -2
BITMAP
00
00
00
7f
60
60
60
60
60
60
60
60
00
00
ENDCHAR
STARTCHAR 0414
ENCODING 1044
SWIDTH 520 0
DWIDTH 10 0
BBX 10 14 0 -2
BITMAP
0000
0000
0000
3f00
3300
3300
3300
3300
3300
6300
6300
ff80
c180
c180
ENDCHAR
STARTCHAR 0415
ENCODING 1045
SWIDTH 520 0
DWIDTH 8 0
BBX 8 14 0 -2
BITMAP
00
00
00
7e
60
60
60
7e
60
60
60
7e
00
00
ENDCHAR
STARTCHAR 0416
ENCODING 1046
SWIDTH 520 0
DWIDTH 14 0
BBX 14 14 0 -2
BITMAP
0000
0000
0000
6318
7338
1320
1b60
0fc0
0fc0
1b60
3330
6318
0000
0000
ENDCHAR
STARTCHAR 0417
ENCODING 1047
SWIDTH 520 0
DWIDTH 8 0
BBX 8 14 0 -2
BITMAP
00
00
00
3c
46
06
06
3c
06
06
46
3c
00
00
ENDCHAR
STARTCHAR 0418
ENCODING 1048
SWIDTH 520 0
DWIDTH 10 0
BBX 10 14 0 -2
BITMAP
0000
0000
0000
4180
4380
4680
4680
4c80
5880
5880
7080
6080
0000
0000
ENDCHAR
STARTCHAR 0419
ENCODING 1049
SWIDTH 520 0
DWIDTH 10 0
BBX 10 14 0 -2
BITMAP
3300
1e00
0000
4180
4380
4680
4680
4c80
5880
5880
7080
6080
0000
0000
ENDCHAR
STARTCHAR 041A
ENCODING 1050
SWIDTH 520 0
DWIDTH 9 0
BBX 9 14 0 -2
BITMAP
0000
0000
0000
6300
6700
6400
6c00
7800
7800
6c00
6600
6300
0000
0000
ENDCHAR
STARTCHAR 041B
ENCODING 1051
SWIDTH 520 0
DWIDTH 10 0
BBX 10 14 0 -2
BITMAP
0000
0000
0000
3f80
3180
3180
3180
3180
3180
3180
6180
c180
0000
0000
ENDCHAR
STARTCHAR 041C
ENCODING 1052
SWIDTH 520 0
DWIDTH 11 0
BBX 11 14 0 -2
BITMAP
0000
0000
0000
60c0
71c0
71c0
5ac0
5ac0
4cc0
4cc0
40c0
40c0
0000
0000
ENDCHAR
STARTCHAR 041D
ENCODING 1053
SWIDTH 520 0
DWIDTH 10 0
BBX 10 14 0 -2
BITMAP
0000
0000
0000
6180
6180
6180
6180
7f80
6180
6180
6180
6180
0000
0000
ENDCHAR
STARTCHAR 041E
ENCODING 1054
SWIDTH 520 0
DWIDTH 11 0
BBX 11 14 0 -2
BITMAP
0000
0000
0000
1f00
3180
60c0
60c0
60c0
60c0
60c0
3180
1f00
0000
0000
ENDCHAR
STARTCHAR 041F
ENCODING 1055
SWIDTH 520 0
DWIDTH 10 0
BBX 10 14 0 -2
BITMAP
0000
0000
0000
7f80
6180
6180
6180
6180
6180
6180
6180
6180
0000
0000
ENDCHAR
STARTCHAR 0420
ENCODING 1056
SWIDTH 520 0
DWIDTH 9 0
BBX 9 14 0 -2
BITMAP
0000
0000
0000
7e00
6300
6300
6300
6300
7e00
6000
6000
6000
0000
0000
ENDCHAR
STARTCHAR 0421
ENCODING 1057
SWIDTH 520 0
DWIDTH 9 0
BBX 9 14 0 -2
BITMAP
0000
0000
0000
1e00
3100
6000
6000
6000
6000
6000
3100
1e00
0000
0000
ENDCHAR
STARTCHAR 0422
ENCODING 1058
SWIDTH 520 0
DWIDTH 8 0
BBX 8 14 0 -2
BITMAP
00
00
00
ff
18
18
18
18
18
18
18
18
00
00
ENDCHAR
STARTCHAR 0423
ENCODING 1059
SWIDTH 520 0
DWIDTH 9 0
BBX 9 14 0 -2
BITMAP
0000
0000
0000
6300
6300
3600
3600
1c00
1c00
0c00
7800
7000
0000
0000
ENDCHAR
STARTCHAR 0424
ENCODING 1060
SWIDTH 520 0
DWIDTH 12 0
BBX 12 14 0 -2
BITMAP
0000
0000
0000
0600
1f80
36c0
6660
6660
6660
36c0
1f80
0600
0000
0000
ENDCHAR
STARTCHAR 0425
ENCODING 1061
SWIDTH 520 0
DWIDTH 9 0
BBX 9 14 0 -2
BITMAP
0000
0000
0000
6300
6300
3600
1c00
1c00
1c00
3600
6300
6300
0000
0000
ENDCHAR
STARTCHAR 0426
ENCODING 1062
SWIDTH 520 0
DWIDTH 11 0
BBX 11 14 0 -2
BITMAP
0000
0000
0000
6180
6180
6180
6180
6180
6180
6180
6180
7fc0
00c0
00c0
ENDCHAR
STARTCHAR 0427
ENCODING 1063
SWIDTH 520 0
DWIDTH 9 0
BBX 9 14 0 -2
BITMAP
0000
0000
0000
6300
6300
6300
6300
6300
3f00
0300
0300
0300
0000
0000
ENDCHAR
STARTCHAR 0428
ENCODING 1064
SWIDTH 520 0
DWIDTH 14 0
BBX 14 14 0 -2
BITMAP
0000
0000
0000
6318
6318
6318
6318
6318
6318
6318
6318
7ff8
0000
0000
ENDCHAR
STARTCHAR 0429
ENCODING 1065
SWIDTH 520 0
DWIDTH 15 0
BBX 15 14 0 -2
BITMAP
0000
0000
0000
6318
6318
6318
6318
6318
6318
6318
6318
7ffc
000c
000c
ENDCHAR
STARTCHAR 042A
ENCODING 1066
SWIDTH 520 0
DWIDTH 11 0
BBX 11 14 0 -2
BITMAP
0000
0000
0000
f800
1800
1800
1800
1f80
18c0
18c0
18c0
1f80
0000
0000
ENDCHAR
STARTCHAR 042B
ENCODING 1067
SWIDTH 520 0
DWIDTH 13 0
BBX 13 14 0 -2
BITMAP
0000
0000
0000
6030
6030
6030
6030
7f30
61b0
61b0
61b0
7f30
0000
0000
ENDCHAR
STARTCHAR 042C
ENCODING 1068
SWIDTH 520 0
DWIDTH 9 0
BBX 9 14 0 -2
BITMAP
0000
0000
0000
6000
6000
6000
6000
7e00
6300
6300
6300
7e00
0000
0000
ENDCHAR
STARTCHAR 042D
ENCODING 1069
SWIDTH 520 0
DWIDTH 9 0
BBX 9 14 0 -2
BITMAP
0000
0000
0000
3c00
4600
0300
0300
1f00
0300
0300
4600
3c00
0000
0000
ENDCHAR
STARTCHAR 042E
ENCODING 1070
SWIDTH 520 0
DWIDTH 15 0
BBX 15 14 0 -2
BITMAP
0000
0000
0000
61f0
6318
660c
660c
7e0c
660c
660c
6318
61f0
0000
0000
ENDCHAR
STARTCHAR 042F
ENCODING 1071
SWIDTH 520 0
DWIDTH 9 0
BBX 9 14 0 -2
BITMAP
0000
0000
0000
3f00
6300
6300
6300
3f00
1b00
3300
6300
c300
0000
0000
ENDCHAR
STARTCHAR 0430
ENCODING 1072
SWIDTH 520 0
DWIDTH 8 0
BBX 8 14 0 -2
BITMAP
00
00
00
00
00
3c
06
3e
66
66
66
3e
00
00
ENDCHAR
STARTCHAR 0431
ENCODING 1073
SWIDTH 520 0
DWIDTH 8 0
BBX 8 14 0 -2
BITMAP
00
00
1e
30
60
7c
66
66
66
66
66
3c
00
00
ENDCHAR
STARTCHAR 0432
ENCODING 1074
SWIDTH 520 0
DWIDTH 8 0
BBX 8 14 0 -2
BITMAP
00
00
00
00
00
7c
66
66
7c
66
66
7c
00
00
ENDCHAR
STARTCHAR 0433
ENCODING 1075
SWIDTH 520 0
DWIDTH 6 0
BBX 6 14 0 -2
BITMAP
00
00
00
00
00
7c
60
60
60
60
60
60
00
00
ENDCHAR
STARTCHAR 0434
ENCODING 1076
SWIDTH 520 0
DWIDTH 9 0
BBX 9 14 0 -2
BITMAP
0000
0000
0000
0000
0000
3e00
3600
3600
3600
6600
6600
ff00
c300
c300
ENDCHAR
STARTCHAR 0435
ENCODING 1077
SWIDTH 520 0
DWIDTH 8 0
BBX 8 14 0 -2
BITMAP
00
00
00
00
00
3c
66
66
7e
60
62
3c
00
00
ENDCHAR
STARTCHAR 0436
ENCODING 1078
SWIDTH 520 0
DWIDTH 12 0
BBX 12 14 0 -2
BITMAP
0000
0000
0000
0000
0000
6660
36c0
36c0
1f80
36c0
6660
c630
0000
0000
ENDCHAR
STARTCHAR 0437
ENCODING 1079
SWIDTH 520 0
DWIDTH 7 0
BBX 7 14 0 -2
BITMAP
00
00
00
00
00
78
0c
0c
38
0c
0c
78
00
00
ENDCHAR
STARTCHAR 0438
ENCODING 1080
SWIDTH 520 0
DWIDTH 8 0
BBX 8 14 0 -2
BITMAP
00
00
00
00
00
42
46
4e
5a
72
62
42
00
00
ENDCHAR
STARTCHAR 0439
ENCODING 1081
SWIDTH 520 0
DWIDTH 8 0
BBX 8 14 0 -2
BITMAP
00
00
66
3c
00
42
46
4e
5a
72
62
42
00
00
ENDCHAR
STARTCHAR 043A
ENCODING 1082
SWIDTH 520 0
DWIDTH 8 0
BBX 8 14 0 -2
BITMAP
00
00
00
00
00
66
6e
68
78
6c
66
63
00
00
ENDCHAR
STARTCHAR 043B
ENCODING 1083
SWIDTH 520 0
DWIDTH 9 0
BBX 9 14 0 -2
BITMAP
0000
0000
0000
0000
0000
3f00
3300
3300
3300
3300
6300
c300
0000
0000
ENDCHAR
STARTCHAR 043C
ENCODING 1084
SWIDTH 520 0
DWIDTH 9 0
BBX 9 14 0 -2
BITMAP
0000
0000
0000
0000
0000
6300
6700
7b00
5b00
5b00
4300
4300
0000
0000
ENDCHAR
STARTCHAR 043D
ENCODING 1085
SWIDTH 520 0
DWIDTH 8 0
BBX 8 14 0 -2
BITMAP
00
00
00
00
00
66
66
66
7e
66
66
66
00
00
ENDCHAR
STARTCHAR 043E
ENCODING 1086
SWIDTH 520 0
DWIDTH 8 0
BBX 8 14 0 -2
BITMAP
00
00
00
00
00
3c
66
66
66
66
66
3c
00
00
ENDCHAR
STARTCHAR 043F
ENCODING 1087
SWIDTH 520 0
DWIDTH 8 0
BBX 8 14 0 -2
BITMAP
00
00
00
00
00
7e
66
66
66
66
66
66
00
00
ENDCHAR
STARTCHAR 0440
ENCODING 1088
SWIDTH 520 0
DWIDTH 8 0
BBX 8 14 0 -2
BITMAP
00
00
00
00
00
7c
66
66
66
66
66
7c
60
60
ENDCHAR
STARTCHAR 0441
ENCODING 1089
SWIDTH 520 0
DWIDTH 8 0
BBX 8 14 0 -2
BITMAP
00
00
00
00
00
3c
62
60
60
60
62
3c
00
00
ENDCHAR
STARTCHAR 0442
ENCODING 1090
SWIDTH 520 0
DWIDTH 6 0
BBX 6 14 0 -2
BITMAP
00
00
00
00
00
fc
30
30
30
30
30
30
00
00
ENDCHAR
STARTCHAR 0443
ENCODING 1091
SWIDTH 520 0
DWIDTH 8 0
BBX 8 14 0 -2
BITMAP
00
00
00
00
00
66
66
66
3c
3c
3c
18
18
30
ENDCHAR
STARTCHAR 0444
ENCODING 1092
SWIDTH 520 0
DWIDTH 12 0
BBX 12 14 0 -2
BITMAP
0000
0000
0600
0600
0600
3fc0
6660
6660
6660
6660
6660
3fc0
0600
0600
ENDCHAR
STARTCHAR 0445
ENCODING 1093
SWIDTH 520 0
DWIDTH 8 0
BBX 8 14 0 -2
BITMAP
00
00
00
00
00
66
66
3c
18
3c
66
66
00
00
ENDCHAR
STARTCHAR 0446
ENCODING 1094
SWIDTH 520 0
DWIDTH 9 0
BBX 9 14 0 -2
BITMAP
0000
0000
0000
0000
0000
6600
6600
6600
6600
6600
6600
7f00
0300
0300
ENDCHAR
STARTCHAR 0447
ENCODING 1095
SWIDTH 520 0
DWIDTH 8 0
BBX 8 14 0 -2
BITMAP
00
00
00
00
00
66
66
66
66
3e
06
06
00
00
ENDCHAR
STARTCHAR 0448
ENCODING 1096
SWIDTH 520 0
DWIDTH 12 0
BBX 12 14 0 -2
BITMAP
0000
0000
0000
0000
0000
6660
6660
6660
6660
6660
6660
7fe0
0000
0000
ENDCHAR
STARTCHAR 0449
ENCODING 1097
SWIDTH 520 0
DWIDTH 13 0
BBX 13 14 0 -2
BITMAP
0000
0000
0000
0000
0000
6660
6660
6660
6660
6660
6660
7ff0
0030
0030
ENDCHAR
STARTCHAR 044A
ENCODING 1098
SWIDTH 520 0
DWIDTH 9 0
BBX 9 14 0 -2
BITMAP
0000
0000
0000
0000
0000
f000
3000
3e00
3300
3300
3300
3e00
0000
0000
ENDCHAR
STARTCHAR 044B
ENCODING 1099
SWIDTH 520 0
DWIDTH 11 0
BBX 11 14 0 -2
BITMAP
0000
0000
0000
0000
0000
60c0
60c0
7cc0
66c0
66c0
66c0
7cc0
0000
0000
ENDCHAR
STARTCHAR 044C
ENCODING 1100
SWIDTH 520 0
DWIDTH 8 0
BBX 8 14 0 -2
BITMAP
00
00
00
00
00
60
60
7c
66
66
66
7c
00
00
ENDCHAR
STARTCHAR 044D
ENCODING 1101
SWIDTH 520 0
DWIDTH 7 0
BBX 7 14 0 -2
BITMAP
00
00
00
00
00
78
0c
0c
3c
0c
0c
78
00
00
ENDCHAR
STARTCHAR 044E
ENCODING 1102
SWIDTH 520 0
DWIDTH 12 0
BBX 12 14 0 -2
BITMAP
0000
0000
0000
0000
0000
63c0
6660
6660
7e60
6660
6660
63c0
0000
0000
ENDCHAR
STARTCHAR 044F
ENCODING 1103
SWIDTH 520 0
DWIDTH 8 0
BBX 8 14 0 -2
BITMAP
00
00
00
00
00
3e
66
66
3e
36
66
66
00
00
ENDCHAR
STARTCHAR 0451
ENCODING 1105
SWIDTH 520 0
DWIDTH 8 0
BBX 8 14 0 -2
BITMAP
00
00
24
24
00
3c
66
66
7e
60
62
3c
00
00
ENDCHAR
STARTCHAR 0452
ENCODING 1106
SWIDTH 520 0
DWIDTH 8 0
BBX 8 14 0 -2
BITMAP
00
00
60
f8
60
7c
66
66
66
66
66
66
0c
18
ENDCHAR
STARTCHAR 0453
ENCODING 1107
SWIDTH 520 0
DWIDTH 6 0
BBX 6 14 0 -2
BITMAP
00
00
0c
18
00
7c
60
60
60
60
60
60
00
00
ENDCHAR
STARTCHAR 0454
ENCODING 1108
SWIDTH 520 0
DWIDTH 7 0
BBX 7 14 0 -2
BITMAP
00
00
00
00
00
3c
60
60
78
60
60
3c
00
00
ENDCHAR
STARTCHAR 0455
ENCODING 1109
SWIDTH 520 0
DWIDTH 7 0
BBX 7 14 0 -2
BITMAP
00
00
00
00
00
3c
60
60
38
0c
0c
78
00
00
ENDCHAR
STARTCHAR 0456
ENCODING 1110
SWIDTH 520 0
DWIDTH 4 0
BBX 4 14 0 -2
BITMAP
00
00
60
60
00
60
60
60
60
60
60
60
00
00
ENDCHAR
STARTCHAR 0457
ENCODING 1111
SWIDTH 520 0
DWIDTH 4 0
BBX 4 14 0 -2
BITMAP
00
00
90
90
00
60
60
60
60
60
60
60
00
00
ENDCHAR
STARTCHAR 0458
ENCODING 1112
SWIDTH 520 0
DWIDTH 5 0
BBX 5 14 0 -2
BITMAP
00
00
30
30
00
70
30
30
30
30
30
30
30
e0
ENDCHAR
STARTCHAR 0459
ENCODING 1113
SWIDTH 520 0
DWIDTH 12 0
BBX 12 14 0 -2
BITMAP
0000
0000
0000
0000
0000
7e00
6600
67c0
6660
6660
6660
c7c0
0000
0000
ENDCHAR
STARTCHAR 045A
ENCODING 1114
SWIDTH 520 0
DWIDTH 12 0
BBX 12 14 0 -2
BITMAP
0000
0000
0000
0000
0000
6600
6600
7fc0
6660
6660
6660
67c0
0000
0000
ENDCHAR
STARTCHAR 045B
ENCODING 1115
SWIDTH 520 0
DWIDTH 9 0
BBX 9 14 0 -2
BITMAP
0000
0000
6000
f800
6000
7c00
6600
6600
6600
6600
6600
6600
0000
0000
ENDCHAR
STARTCHAR 045C
ENCODING 1116
SWIDTH 520 0
DWIDTH 8 0
BBX 8 14 0 -2
BITMAP
00
00
0c
18
00
66
6e
68
78
6c
66
63
00
00
ENDCHAR
STARTCHAR 045E
ENCODING 1118
SWIDTH 520 0
DWIDTH 8 0
BBX 8 14 0 -2
BITMAP
00
00
66
3c
00
66
66
66
3c
3c
3c
18
18
30
ENDCHAR
STARTCHAR 045F
ENCODING 1119
SWIDTH 520 0
DWIDTH 8 0
BBX 8 14 0 -2
BITMAP
00
00
00
00
00
66
66
66
66
66
66
7e
18
18
ENDCHAR
STARTCHAR 2116
ENCODING 8470
SWIDTH 520 0
DWIDTH 16 0
BBX 16 14 0 -2
BITMAP
0000
0000
0000
613c
7166
7966
5d66
4f66
473c
4300
413c
4100
0000
0000
ENDCHAR
ENDFONT